<svg version="1" xmlns="http://www.w3.org/2000/svg" width="346.667" height="346.667" viewBox="0 0 260.000000 260.000000"><path d="M197.5 36.1c-12.7 1.8-26.9 7.4-39.2 15.6-7.7 5-22 19.5-26.2 26.6l-3.3 5.6 6.2 8.2c6.7 9 13.1 20.8 16.5 30.9l2.2 6.5 4.4-.3c12-1 31.7-9.3 43.6-18.5 12.9-9.9 24.1-24.6 30.3-39.4 3.7-8.9 7-23.4 7-31.1V35l-17.7.1c-9.8.1-20.5.5-23.8 1zM21 65.9C21 79 27.2 99 35.2 112c16 26 42.2 42 74.5 45.6l6.2.6.3 32 .3 32 2.4 1.9c1.9 1.6 4 1.9 11.3 1.9 8.1 0 9.1-.2 11.3-2.5l2.5-2.4v-33.8c0-45.5-1.5-54.7-11.7-74.3C118.1 85.7 90.5 66.9 59 63c-4.6-.5-15.1-1-23.2-1H21v3.9z"/></svg>